<svg xmlns="http://www.w3.org/2000/svg" width="1200" height="500" viewBox="0 0 1200 500">
  <rect width="1200" height="500" fill="#f8fafc"/>
  <text x="60" y="60" font-family="Arial, sans-serif" font-size="30" font-weight="700" fill="#0f172a">
    Guion de demo comercial (15 minutos)
  </text>

  <rect x="60" y="100" width="1080" height="340" rx="16" fill="#ffffff" stroke="#cbd5e1"/>

  <rect x="90" y="130" width="180" height="70" rx="12" fill="#6366f1"/>
  <text x="108" y="160" font-family="Arial, sans-serif" font-size="18" fill="#ffffff" font-weight="700">Min 0-2</text>
  <text x="108" y="182" font-family="Arial, sans-serif" font-size="14" fill="#e0e7ff">Problema y propuesta</text>

  <rect x="300" y="130" width="180" height="70" rx="12" fill="#4f46e5"/>
  <text x="318" y="160" font-family="Arial, sans-serif" font-size="18" fill="#ffffff" font-weight="700">Min 2-5</text>
  <text x="318" y="182" font-family="Arial, sans-serif" font-size="14" fill="#e0e7ff">Alta rapida de empresa</text>

  <rect x="510" y="130" width="180" height="70" rx="12" fill="#4338ca"/>
  <text x="528" y="160" font-family="Arial, sans-serif" font-size="18" fill="#ffffff" font-weight="700">Min 5-9</text>
  <text x="528" y="182" font-family="Arial, sans-serif" font-size="14" fill="#e0e7ff">Carga y venta real</text>

  <rect x="720" y="130" width="180" height="70" rx="12" fill="#3730a3"/>
  <text x="738" y="160" font-family="Arial, sans-serif" font-size="18" fill="#ffffff" font-weight="700">Min 9-12</text>
  <text x="738" y="182" font-family="Arial, sans-serif" font-size="14" fill="#e0e7ff">Reportes y control</text>

  <rect x="930" y="130" width="180" height="70" rx="12" fill="#312e81"/>
  <text x="948" y="160" font-family="Arial, sans-serif" font-size="18" fill="#ffffff" font-weight="700">Min 12-15</text>
  <text x="948" y="182" font-family="Arial, sans-serif" font-size="14" fill="#e0e7ff">Cierre y siguiente paso</text>

  <line x1="270" y1="165" x2="300" y2="165" stroke="#334155" stroke-width="3"/>
  <polygon points="300,165 290,160 290,170" fill="#334155"/>
  <line x1="480" y1="165" x2="510" y2="165" stroke="#334155" stroke-width="3"/>
  <polygon points="510,165 500,160 500,170" fill="#334155"/>
  <line x1="690" y1="165" x2="720" y2="165" stroke="#334155" stroke-width="3"/>
  <polygon points="720,165 710,160 710,170" fill="#334155"/>
  <line x1="900" y1="165" x2="930" y2="165" stroke="#334155" stroke-width="3"/>
  <polygon points="930,165 920,160 920,170" fill="#334155"/>

  <text x="95" y="250" font-family="Arial, sans-serif" font-size="18" fill="#0f172a" font-weight="700">Mensajes clave que convierten:</text>
  <text x="95" y="280" font-family="Arial, sans-serif" font-size="17" fill="#334155">- "Con NexoPOS vendes hoy y controlas mejor desde el primer dia."</text>
  <text x="95" y="307" font-family="Arial, sans-serif" font-size="17" fill="#334155">- "No solo cobras: entiendes costos, margenes y rentabilidad real."</text>
  <text x="95" y="334" font-family="Arial, sans-serif" font-size="17" fill="#334155">- "Caja Android + Admin web: operacion simple y control profesional."</text>
  <text x="95" y="370" font-family="Arial, sans-serif" font-size="17" fill="#334155">CTA sugerida: activar demo 48 hs y agendar acompanamiento de puesta en marcha.</text>
</svg>
